<svg width="130" height="29" viewBox="0 0 130 29" fill="none" xmlns="http://www.w3.org/2000/svg">
<path d="M20 12.5C20 18.5 12 24.5 12 24.5C12 24.5 4 18.5 4 12.5C4 10.3783 4.84285 8.34344 6.34315 6.84315C7.84344 5.34285 9.87827 4.5 12 4.5C14.1217 4.5 16.1566 5.34285 17.6569 6.84315C19.1571 8.34344 20 10.3783 20 12.5Z" stroke="#F97316" stroke-width="2" stroke-linecap="round" stroke-linejoin="round"/>
<path d="M12 15.5C13.6569 15.5 15 14.1569 15 12.5C15 10.8431 13.6569 9.5 12 9.5C10.3431 9.5 9 10.8431 9 12.5C9 14.1569 10.3431 15.5 12 15.5Z" stroke="#F97316" stroke-width="2" stroke-linecap="round" stroke-linejoin="round"/>
<path d="M35.5682 23H29.9176V5.54545H35.7472C37.4574 5.54545 38.9261 5.89489 40.1534 6.59375C41.3807 7.28693 42.321 8.28409 42.9744 9.58523C43.6335 10.8807 43.9631 12.4347 43.9631 14.2472C43.9631 16.0653 43.6307 17.6278 42.9659 18.9347C42.3068 20.2415 41.3523 21.2472 40.1023 21.9517C38.8523 22.6506 37.3409 23 35.5682 23ZM32.5511 20.6989H35.4233C36.7528 20.6989 37.858 20.4489 38.7386 19.9489C39.6193 19.4432 40.2784 18.7131 40.7159 17.7585C41.1534 16.7983 41.3722 15.6278 41.3722 14.2472C41.3722 12.8778 41.1534 11.7159 40.7159 10.7614C40.2841 9.80682 39.6392 9.08239 38.7812 8.58807C37.9233 8.09375 36.858 7.84659 35.5852 7.84659H32.5511V20.6989ZM52.6754 23.2642C51.3857 23.2642 50.2749 22.9886 49.343 22.4375C48.4169 21.8807 47.701 21.0994 47.1953 20.0938C46.6953 19.0824 46.4453 17.8977 46.4453 16.5398C46.4453 15.1989 46.6953 14.017 47.1953 12.9943C47.701 11.9716 48.4055 11.1733 49.3089 10.5994C50.218 10.0256 51.2805 9.73864 52.4964 9.73864C53.2351 9.73864 53.951 9.8608 54.6442 10.1051C55.3374 10.3494 55.9595 10.733 56.5107 11.2557C57.0618 11.7784 57.4964 12.4574 57.8146 13.2926C58.1328 14.1222 58.2919 15.1307 58.2919 16.3182V17.2216H47.8857V15.3125H55.7947C55.7947 14.642 55.6584 14.0483 55.3857 13.5312C55.1129 13.0085 54.7294 12.5966 54.2351 12.2955C53.7464 11.9943 53.1726 11.8438 52.5135 11.8438C51.7976 11.8438 51.1726 12.0199 50.6385 12.3722C50.1101 12.7187 49.701 13.1733 49.4112 13.7358C49.1271 14.2926 48.9851 14.8977 48.9851 15.5511V17.0426C48.9851 17.9176 49.1385 18.6619 49.4453 19.2756C49.7578 19.8892 50.1925 20.358 50.7493 20.6818C51.3061 21 51.9567 21.1591 52.701 21.1591C53.1839 21.1591 53.6243 21.0909 54.022 20.9545C54.4197 20.8125 54.7635 20.6023 55.0533 20.3239C55.343 20.0455 55.5646 19.7017 55.718 19.2926L58.13 19.7273C57.9368 20.4375 57.5902 21.0597 57.0902 21.5938C56.5959 22.1222 55.9737 22.5341 55.2237 22.8295C54.4794 23.1193 53.63 23.2642 52.6754 23.2642ZM71.9432 9.90909L67.196 23H64.4688L59.7131 9.90909H62.4489L65.7642 19.983H65.9006L69.2074 9.90909H71.9432ZM74.5426 23V5.54545H85.3665V7.8125H77.1761V13.1307H84.5909V15.3892H77.1761V23H74.5426ZM92.9538 23.2642C91.7266 23.2642 90.6555 22.983 89.7408 22.4205C88.826 21.858 88.1158 21.071 87.6101 20.0597C87.1044 19.0483 86.8516 17.8665 86.8516 16.5142C86.8516 15.1562 87.1044 13.9687 87.6101 12.9517C88.1158 11.9347 88.826 11.1449 89.7408 10.5824C90.6555 10.0199 91.7266 9.73864 92.9538 9.73864C94.1811 9.73864 95.2521 10.0199 96.1669 10.5824C97.0817 11.1449 97.7919 11.9347 98.2976 12.9517C98.8033 13.9687 99.0561 15.1562 99.0561 16.5142C99.0561 17.8665 98.8033 19.0483 98.2976 20.0597C97.7919 21.071 97.0817 21.858 96.1669 22.4205C95.2521 22.983 94.1811 23.2642 92.9538 23.2642ZM92.9624 21.125C93.7578 21.125 94.4169 20.9148 94.9396 20.4943C95.4624 20.0739 95.8487 19.5142 96.0987 18.8153C96.3544 18.1165 96.4822 17.3466 96.4822 16.5057C96.4822 15.6705 96.3544 14.9034 96.0987 14.2045C95.8487 13.5 95.4624 12.9347 94.9396 12.5085C94.4169 12.0824 93.7578 11.8693 92.9624 11.8693C92.1612 11.8693 91.4964 12.0824 90.968 12.5085C90.4453 12.9347 90.0561 13.5 89.8004 14.2045C89.5504 14.9034 89.4254 15.6705 89.4254 16.5057C89.4254 17.3466 89.5504 18.1165 89.8004 18.8153C90.0561 19.5142 90.4453 20.0739 90.968 20.4943C91.4964 20.9148 92.1612 21.125 92.9624 21.125ZM107.415 23.2642C106.188 23.2642 105.116 22.983 104.202 22.4205C103.287 21.858 102.577 21.071 102.071 20.0597C101.565 19.0483 101.312 17.8665 101.312 16.5142C101.312 15.1562 101.565 13.9687 102.071 12.9517C102.577 11.9347 103.287 11.1449 104.202 10.5824C105.116 10.0199 106.188 9.73864 107.415 9.73864C108.642 9.73864 109.713 10.0199 110.628 10.5824C111.543 11.1449 112.253 11.9347 112.759 12.9517C113.264 13.9687 113.517 15.1562 113.517 16.5142C113.517 17.8665 113.264 19.0483 112.759 20.0597C112.253 21.071 111.543 21.858 110.628 22.4205C109.713 22.983 108.642 23.2642 107.415 23.2642ZM107.423 21.125C108.219 21.125 108.878 20.9148 109.401 20.4943C109.923 20.0739 110.31 19.5142 110.56 18.8153C110.815 18.1165 110.943 17.3466 110.943 16.5057C110.943 15.6705 110.815 14.9034 110.56 14.2045C110.31 13.5 109.923 12.9347 109.401 12.5085C108.878 12.0824 108.219 11.8693 107.423 11.8693C106.622 11.8693 105.957 12.0824 105.429 12.5085C104.906 12.9347 104.517 13.5 104.261 14.2045C104.011 14.9034 103.886 15.6705 103.886 16.5057C103.886 17.3466 104.011 18.1165 104.261 18.8153C104.517 19.5142 104.906 20.0739 105.429 20.4943C105.957 20.9148 106.622 21.125 107.423 21.125ZM121.262 23.2557C120.205 23.2557 119.262 22.9858 118.433 22.446C117.609 21.9006 116.961 21.125 116.489 20.1193C116.023 19.108 115.79 17.8949 115.79 16.4801C115.79 15.0653 116.026 13.8551 116.498 12.8494C116.975 11.8437 117.629 11.0739 118.458 10.5398C119.288 10.0057 120.228 9.73864 121.279 9.73864C122.092 9.73864 122.745 9.875 123.239 10.1477C123.739 10.4148 124.126 10.7273 124.398 11.0852C124.677 11.4432 124.893 11.7585 125.046 12.0312H125.2V5.54545H127.748V23H125.259V20.9631H125.046C124.893 21.2415 124.671 21.5597 124.381 21.9176C124.097 22.2756 123.705 22.5881 123.205 22.8551C122.705 23.1222 122.058 23.2557 121.262 23.2557ZM121.825 21.0824C122.558 21.0824 123.177 20.8892 123.683 20.5028C124.194 20.1108 124.58 19.5682 124.842 18.875C125.109 18.1818 125.242 17.375 125.242 16.4545C125.242 15.5455 125.112 14.75 124.85 14.0682C124.589 13.3864 124.205 12.8551 123.7 12.4744C123.194 12.0937 122.569 11.9034 121.825 11.9034C121.058 11.9034 120.418 12.1023 119.907 12.5C119.396 12.8977 119.009 13.4403 118.748 14.1278C118.492 14.8153 118.364 15.5909 118.364 16.4545C118.364 17.3295 118.495 18.1165 118.756 18.8153C119.018 19.5142 119.404 20.0682 119.915 20.4773C120.433 20.8807 121.069 21.0824 121.825 21.0824Z" fill="#9CA3AF"/>
</svg>
